<?xml version="1.0" encoding="UTF-8"?>
<svg id="Capa_1" xmlns="http://www.w3.org/2000/svg" version="1.1" viewBox="0 0 252 297">
  <!-- Generator: Adobe Illustrator 29.6.1, SVG Export Plug-In . SVG Version: 2.1.1 Build 9)  -->
  <defs>
    <style>
      .st0 {
        fill: #fff;
      }
    </style>
  </defs>
  <path d="M222.28,91.66c-4.2,0-8.19.88-11.82,2.45-4.41-11.15-15.24-19.06-27.87-19.06-4.69,0-9.14,1.09-13.09,3.03-5.01-9.66-15.05-16.27-26.6-16.27-3.4,0-6.65.58-9.7,1.63V30.2c0-16.65-13.45-30.2-29.99-30.2s-29.99,13.55-29.99,30.2v119.64l-21.6-24.71c-.15-.17-.31-.33-.46-.49-5.67-5.68-13.22-8.82-21.26-8.86h-.15c-8.02,0-15.52,3.1-21.15,8.72-9.92,9.92-10.47,24.65-1.5,40.41,11.6,20.39,24.22,39.62,35.35,56.58,8.13,12.4,15.82,24.11,21.43,33.79,4.87,8.4,17.8,35.65,17.93,35.93,1.68,3.54,5.25,5.8,9.16,5.8h128.27c4.41,0,8.31-2.84,9.66-7.04,2.39-7.44,23.38-73.4,23.38-98.87v-69.23c0-16.66-13.46-30.2-29.99-30.2Z"/>
  <path class="st0" d="M212.58,121.86c0-5.47,4.35-9.92,9.7-9.92s9.7,4.45,9.7,9.92v69.23c0,16.93-13.01,62.44-20.19,85.62h-114.43c-4.21-8.75-12.09-24.96-15.94-31.61-5.9-10.17-13.73-22.1-22.02-34.74-10.97-16.71-23.39-35.65-34.68-55.48-2.95-5.18-5.65-12.17-1.78-16.03,1.8-1.81,4.23-2.75,6.85-2.78,2.56.01,4.96.98,6.81,2.72l39.12,44.76c2.78,3.18,7.25,4.31,11.2,2.82,3.96-1.49,6.58-5.27,6.58-9.5V30.2c0-5.47,4.35-9.91,9.7-9.91s9.71,4.45,9.71,9.91v94.71c0,5.6,4.54,10.14,10.14,10.14s10.14-4.54,10.14-10.14v-32.9c0-5.46,4.35-9.91,9.7-9.91s9.7,4.44,9.7,9.91v46.13c0,5.6,4.54,10.15,10.14,10.15s10.15-4.54,10.15-10.15v-32.89c0-5.47,4.35-9.91,9.7-9.91s9.71,4.45,9.71,9.91v46.13c0,5.6,4.54,10.15,10.14,10.15s10.15-4.54,10.15-10.15v-29.52h0Z"/>
</svg>