<?xml version="1.0" encoding="UTF-8"?>
<svg id="Calque_1" xmlns="http://www.w3.org/2000/svg" version="1.1" viewBox="0 0 320 512">
  <!-- Generator: Adobe Illustrator 29.6.1, SVG Export Plug-In . SVG Version: 2.1.1 Build 9)  -->
  <defs>
    <style>
      .st0 {
        fill: #fff;
      }
    </style>
  </defs>
  <path d="M180.78,512c-2.02,0-4.03-.38-5.95-1.15-3.97-1.58-7.12-4.69-8.79-8.64l-59.86-141.84-71.14,62.89c-2.99,3.07-8.34,5.27-13.89,5.27-11.65,0-21.14-9.52-21.14-21.23V21.23C0,9.52,9.49,0,21.14,0c4.93,0,9.71,1.73,13.76,5.01l279.06,282.97c4.36,5.35,6.04,10.07,6.04,14.97,0,11.69-9.49,21.23-21.14,21.23h-94.79l57.69,136.81c3.41,8.09-.32,17.39-8.36,20.89l-66.24,28.8c-2.03.88-4.2,1.32-6.38,1.32ZM14.29,398.93c-.45.34-.85.7-1.24,1.09l1.24-1.09ZM290,309.12h.21-.21Z"/>
  <path class="st0" d="M112.28,317.63c1.2,0,2.37.13,3.56.41,5.01,1.15,9.2,4.63,11.18,9.39l62.23,147.45,36.89-16.04-60.91-144.45c-2.09-4.93-1.56-10.61,1.41-15.06,2.97-4.46,7.98-7.15,13.34-7.15h93.33L32,47.51v335.77l69.68-61.63c2.94-2.61,6.74-4.01,10.6-4.01Z"/>
</svg>