<?xml version="1.0" encoding="UTF-8"?>
<svg id="svg6331" xmlns="http://www.w3.org/2000/svg" version="1.1" xmlns:svg="http://www.w3.org/2000/svg" viewBox="0 0 416 448">
  <!-- Generator: Adobe Illustrator 29.6.1, SVG Export Plug-In . SVG Version: 2.1.1 Build 9)  -->
  <defs>
    <style>
      .st0 {
        fill: #fff;
      }
    </style>
  </defs>
  <g id="layer1">
    <path id="path2134" d="M239.99,0c-26.03,0-48.03,21.69-48.03,48v18.81c-5.48-2.2-10.46-2.81-16-2.81-26.32,0-48.03,21.69-48.03,48v147.5c-15.38-15.48-30.78-30.98-46.13-46.47-18.61-18.6-49.27-18.6-67.88,0-18.61,18.6-18.53,49.19,0,67.81,41.35,41.71,82.87,83.31,124.13,125.06,26.03,26.03,62.19,42.09,101.94,42.09h32c79.51,0,144-64.5,144-144v-160c0-26.31-21.68-48-48-48-6.21,0-11.24.87-16,2.78v-18.78c0-26.31-21.68-48-48-48-7.5,0-13.81,1.84-17.69,3.44C281.72,18.3,265.49,0,239.99,0h0Z" vector-effect="none"/>
  </g>
  <path class="st0" d="M239.99,32c9.11,0,15.97,6.86,15.97,16v176c0,8.84,7.16,16,16,16,8.84,0,16-7.16,16-16V80c0-9.14,6.86-16,16-16s16,6.86,16,16v144c0,8.84,7.16,16,16,16,8.84,0,16-7.16,16-16v-80c0-9.14,6.86-16,16-16s16,6.86,16,16v160c0,62.33-49.67,112-112,112h-32c-31.15,0-59-12.46-79.25-32.69-41.33-41.68-82.76-83.34-124.13-125-6.49-6.54-6.5-16.19,0-22.66,6.47-6.47,16.16-6.47,22.62,0l73.44,73.91c10.06,10.12,27.32,3.01,27.34-11.25V112c0-9.14,6.89-16,16.03-16s16,6.86,16,16v112c0,8.84,7.16,16,16,16h0c8.84,0,16-7.16,16-16V48c0-9.14,6.85-16,15.97-16h0Z"/>
</svg>