<?xml version="1.0" encoding="UTF-8"?>
<svg id="Layer_1" xmlns="http://www.w3.org/2000/svg" version="1.1" viewBox="0 0 512 512">
  <!-- Generator: Adobe Illustrator 29.6.1, SVG Export Plug-In . SVG Version: 2.1.1 Build 9)  -->
  <defs>
    <style>
      .st0 {
        fill: #fff;
      }
    </style>
  </defs>
  <path d="M492.34,100.4c-12.36-11.89-29.41-18.44-47.99-18.44-11.34,0-22.2,3.15-31.77,9.04-11.01-21.36-33.12-35.98-58.57-35.98-12.81,0-24.77,3.72-34.91,10.12-11.44-19.78-32.73-33.12-57.09-33.12-23.1,0-43.44,12-55.24,30.11-10.49-7.01-23.1-11.11-36.66-11.11-36.39,0-65.99,29.51-65.99,65.78v13.55c-20.16,3.1-35.3,13.46-45.09,30.92L10.17,252.45c-14.33,25.26-13.53,51.14,2.47,79.12.45.78,60.01,91.25,99.21,125.04,17.49,15.07,39.84,23.38,62.95,23.38h200.63c75.31,0,136.57-60.78,136.57-135.49v-196.11c0-18.75-6.98-35.8-19.65-47.99Z"/>
  <path class="st0" d="M472,344.49c0,52.65-43.33,95.49-96.58,95.49h-200.63c-13.52,0-26.6-4.86-36.83-13.67-29.78-25.67-78.74-96.54-90.89-115.1-10.06-17.84-8.09-28.58-2.04-39.17l48.97-91.36c2.29-4.04,5.18-7.26,10.12-9.23v107.54h40V116.8c0-14.22,11.66-25.79,26-25.79s24.81,10.44,25.9,23.66v61.33h40v-33.27h.09v-25.94c0-1.17-.03-2.34-.09-3.5v-14.93c0-14.53,11.66-26.35,26-26.35s26,11.82,26,26.35v77.64h40v-54.35c0-14.69,11.66-26.65,26-26.65s26,11.95,26,26.65v54.35h40v-25.93c0-13.3,10-28.12,24.35-28.12,16.8,0,27.65,10.37,27.65,26.43v196.11h0Z"/>
</svg>